<svg width="168" height="36" viewBox="0 0 168 36" fill="none" xmlns="http://www.w3.org/2000/svg">
<g clip-path="url(#clip0_1372_34962)">
<path d="M47.5254 15.112C44.713 15.112 42.4601 13.0837 42.4601 10.0885C42.4601 7.09329 44.713 5.0377 47.5254 5.0377C50.0572 5.0377 52.0165 6.63311 52.4639 9.03984H50.1694C49.8199 7.82284 48.8546 7.06763 47.5254 7.06763C45.9444 7.06763 44.7402 8.2718 44.7402 10.0756C44.7402 11.8795 45.9572 13.0837 47.5254 13.0837C48.784 13.0837 49.7493 12.4118 50.1421 11.2365H52.4366C51.9604 13.5871 50.0155 15.112 47.5254 15.112ZM58.5008 7.77955H58.5986V10.074C58.4174 10.0468 58.2763 10.0324 58.0951 10.0324C57.0882 10.0324 56.0796 10.4941 56.0796 11.9068V14.9019H53.9519V7.90622H56.0235V9.09596C56.5414 8.2702 57.4922 7.78115 58.5008 7.78115V7.77955ZM63.0368 12.7053L64.6034 7.90622H66.8289L63.5547 16.2456C63.1635 17.2526 62.66 17.5604 61.5681 17.5604H59.4692V15.8528H61.0358C61.4703 15.8528 61.6932 15.7133 61.8198 15.4182C61.8615 15.306 61.8904 15.1938 61.8904 15.0687C61.8904 14.8875 61.8487 14.7192 61.7782 14.5364L59.1902 7.90301H61.4014L63.0384 12.7021L63.0368 12.7053ZM72.1699 7.69457C74.0876 7.69457 75.3736 9.28997 75.3736 11.3327C75.3736 13.3755 73.9048 15.1104 72.016 15.1104C71.1213 15.1104 70.4623 14.6903 70.0855 14.1163V17.5588H67.9577V7.90301H70.0855V8.69991C70.5056 8.12589 71.2464 7.69297 72.1699 7.69297V7.69457ZM71.6248 13.1943C72.5756 13.1943 73.2202 12.4519 73.2202 11.4033C73.2202 10.3546 72.5772 9.61226 71.6248 9.61226C70.6723 9.61226 70.0294 10.3819 70.0294 11.4033C70.0294 12.4247 70.6451 13.1943 71.6248 13.1943ZM81.186 14.9581H79.0454C77.9952 14.9581 77.5205 14.4818 77.5205 13.4188V9.52888H76.2474V7.96234C77.6328 7.90622 77.9262 7.1927 77.9406 5.82177H79.5505V7.90622H81.1876V9.52888H79.6066V12.7614C79.6066 13.1109 79.7188 13.2376 80.0828 13.2376H81.1876V14.9581H81.186ZM86.0058 15.1248C83.8797 15.1248 82.2282 13.5438 82.2282 11.4033C82.2282 9.26272 83.8797 7.68174 86.0058 7.68174C88.132 7.68174 89.7835 9.24828 89.7835 11.4033C89.7835 13.5583 88.1192 15.1248 86.0058 15.1248ZM86.0058 13.1943C86.9583 13.1943 87.6157 12.4102 87.6157 11.4033C87.6157 10.3963 86.9583 9.61226 86.0058 9.61226C85.0534 9.61226 84.3832 10.3675 84.3832 11.4033C84.3832 12.4391 85.0406 13.1943 86.0058 13.1943ZM93.5195 14.9019H91.3084V5.24615H96.303C98.2624 5.24615 99.5355 6.3942 99.5355 8.18522C99.5355 9.97624 98.2207 11.2349 96.303 11.2349H93.5179V14.9003L93.5195 14.9019ZM93.4778 7.1911V9.27554H96.1363C96.8786 9.27554 97.2843 8.85545 97.2843 8.2253C97.2843 7.59516 96.8642 7.18949 96.1363 7.18949H93.4778V7.1911ZM105.343 7.77955H105.441V10.074C105.258 10.0468 105.119 10.0324 104.937 10.0324C103.93 10.0324 102.922 10.4941 102.922 11.9068V14.9019H100.794V7.90622H102.866V9.09596C103.384 8.2702 104.335 7.78115 105.343 7.78115V7.77955ZM109.98 15.1248C107.852 15.1248 106.203 13.5438 106.203 11.4033C106.203 9.26272 107.854 7.68174 109.98 7.68174C112.106 7.68174 113.758 9.24828 113.758 11.4033C113.758 13.5583 112.092 15.1248 109.98 15.1248ZM109.98 13.1943C110.931 13.1943 111.59 12.4102 111.59 11.4033C111.59 10.3963 110.933 9.61226 109.98 9.61226C109.028 9.61226 108.358 10.3675 108.358 11.4033C108.358 12.4391 109.015 13.1943 109.98 13.1943ZM118.651 15.1248C116.524 15.1248 114.874 13.5438 114.874 11.4161C114.874 9.28837 116.525 7.68014 118.651 7.68014C120.596 7.68014 122.121 9.05106 122.331 10.8838H120.232C120.051 10.1286 119.492 9.61066 118.679 9.61066C117.728 9.61066 117.042 10.3803 117.042 11.4161C117.042 12.4519 117.728 13.1927 118.679 13.1927C119.476 13.1927 120.064 12.6475 120.232 11.9196H122.346C122.15 13.7523 120.611 15.1232 118.651 15.1232V15.1248ZM130.74 11.8506H125.464C125.591 12.7469 126.261 13.3338 127.116 13.3338C127.971 13.3338 128.319 13.0259 128.557 12.4936H130.712C130.377 13.9768 128.921 15.1248 127.116 15.1248C124.849 15.1248 123.394 13.5711 123.394 11.4033C123.394 9.23546 124.934 7.68174 127.145 7.68174C129.356 7.68174 130.754 9.33327 130.754 11.5011C130.754 11.6133 130.754 11.6967 130.74 11.8506ZM127.129 9.33326C126.276 9.33326 125.646 9.80948 125.492 10.5791H128.682C128.543 9.80948 127.913 9.33326 127.129 9.33326ZM135.173 15.112C133.214 15.112 132.011 14.0906 131.843 12.5786H133.815C134.025 13.236 134.668 13.4749 135.215 13.4749C135.762 13.4749 136.251 13.321 136.251 12.8592C136.251 12.4247 135.789 12.3269 135.117 12.229L134.403 12.1312C132.92 11.9212 132.024 11.2638 132.024 9.96181C132.024 8.65983 133.284 7.69457 135.061 7.69457C136.837 7.69457 138 8.63257 138.265 10.0308H136.305C136.137 9.51285 135.619 9.27554 135.074 9.27554C134.529 9.27554 134.108 9.48559 134.108 9.84957C134.108 10.2135 134.431 10.2969 135.115 10.3947L135.829 10.4925C137.229 10.6882 138.333 11.2894 138.333 12.7309C138.333 14.1724 137.088 15.1104 135.172 15.1104L135.173 15.112ZM142.778 15.112C140.819 15.112 139.616 14.0906 139.448 12.5786H141.422C141.632 13.236 142.275 13.4749 142.821 13.4749C143.368 13.4749 143.857 13.321 143.857 12.8592C143.857 12.4247 143.395 12.3269 142.724 12.229L142.01 12.1312C140.527 11.9212 139.631 11.2638 139.631 9.96181C139.631 8.65983 140.889 7.69457 142.668 7.69457C144.446 7.69457 145.607 8.63257 145.871 10.0308H143.912C143.743 9.51285 143.226 9.27554 142.68 9.27554C142.135 9.27554 141.715 9.48559 141.715 9.84957C141.715 10.2135 142.037 10.2969 142.722 10.3947L143.436 10.4925C144.835 10.6882 145.94 11.2894 145.94 12.7309C145.94 14.1724 144.694 15.1104 142.778 15.1104V15.112ZM149.641 7.12215H147.513V5.24775H149.641V7.12215ZM149.641 14.9019H147.513V7.90622H149.641V14.9019ZM155.803 7.69457C157.244 7.69457 158.195 8.65983 158.195 10.228V14.9019H156.067V10.802C156.067 10.1719 155.787 9.62669 154.948 9.62669C154.11 9.62669 153.731 10.1719 153.731 10.8309V14.9019H151.603V7.90622H153.688V8.61974C154.164 8.08741 154.934 7.69617 155.801 7.69617L155.803 7.69457ZM165.093 8.61814V7.90462H167.065V14.3969C167.065 16.5374 165.582 17.7689 163.413 17.7689C161.355 17.7689 160.195 16.7186 159.957 15.3204H162.014C162.154 15.7117 162.645 16.0628 163.441 16.0628C164.492 16.0628 165.12 15.4327 165.12 14.384V13.7956C164.658 14.3696 163.847 14.7897 162.882 14.7897C160.964 14.7897 159.705 13.2921 159.705 11.3199C159.705 9.3477 161.147 7.69617 163.036 7.69617C163.93 7.69617 164.658 8.07458 165.093 8.61974V8.61814ZM163.498 13.0131C164.45 13.0131 165.107 12.2579 165.107 11.2782C165.107 10.2985 164.45 9.54331 163.498 9.54331C162.545 9.54331 161.86 10.2713 161.86 11.2782C161.86 12.2852 162.532 13.0131 163.498 13.0131Z" fill="black"/>
<path d="M52.4656 9.03877V9.07084H52.5041L52.4977 9.03396L52.4672 9.04037L52.4656 9.03877ZM50.1711 9.03877L50.1407 9.04678L50.1471 9.06923H50.1711V9.03716V9.03877ZM50.1423 11.2355V11.2034H50.1198L50.1134 11.2242L50.1439 11.2338L50.1423 11.2355ZM52.4384 11.2355L52.4688 11.2419L52.4769 11.2034H52.4384V11.2355ZM47.5255 15.0805C44.7291 15.0805 42.4908 13.065 42.4908 10.089H42.4282C42.4282 13.1018 44.6971 15.1446 47.5255 15.1446V15.0805ZM42.4924 10.089C42.4924 7.14032 44.7307 5.0687 47.5271 5.0687V5.00616C44.6987 5.00616 42.4298 7.10504 42.4298 10.089H42.4924ZM47.5255 5.0687C50.0429 5.0687 51.9894 6.65288 52.4336 9.04518L52.4961 9.03396C52.0455 6.61119 50.0733 5.00616 47.5255 5.00616V5.0687ZM52.4656 9.0083H50.1711V9.07084H52.4656V9.0083ZM50.2016 9.03075C49.8473 7.79932 48.8708 7.03449 47.5271 7.03449V7.09702C48.8419 7.09702 49.7959 7.84262 50.1407 9.04678L50.2016 9.02915V9.03075ZM47.5255 7.03449C45.9253 7.03449 44.7099 8.25309 44.7099 10.0746H44.7724C44.7724 8.28516 45.9638 7.09702 47.5255 7.09702V7.03449ZM44.7099 10.0746C44.7099 11.8672 45.9397 13.1147 47.5255 13.1147V13.0521C45.9766 13.0521 44.7724 11.8367 44.7724 10.0746H44.7099ZM47.5255 13.1147C48.797 13.1147 49.7751 12.4348 50.1727 11.2467L50.1134 11.2274C49.7254 12.3899 48.773 13.0521 47.5271 13.0521V13.1147H47.5255ZM50.1423 11.2675H52.4368V11.205H50.1423V11.2675ZM52.4063 11.229C51.9333 13.5636 50.0028 15.0805 47.5255 15.0805V15.143C50.03 15.143 51.9894 13.6085 52.4672 11.2419L52.4047 11.229H52.4063ZM58.5986 7.77955L58.6308 7.78008V7.74801H58.5987L58.5986 7.77955ZM58.5986 10.074L58.5939 10.105L58.6308 10.1099V10.073H58.5987L58.5986 10.074ZM56.0796 14.9019L56.0797 14.9345H56.1118V14.9025L56.0796 14.9019ZM53.9536 14.9025H53.9215V14.9345H53.9536V14.9025ZM53.9536 7.90515V7.87308H53.9215V7.90515H53.9536ZM56.0252 7.90515H56.0573V7.87308H56.0252V7.90515ZM56.0252 9.09489H55.9932V9.20392L56.0509 9.11092L56.0236 9.09489H56.0252ZM58.5009 7.81215H58.5987V7.74962H58.5009V7.81215ZM58.5683 7.78008V10.0746H58.6308V7.78008H58.5683ZM58.6035 10.0441C58.4207 10.0153 58.2796 10.0024 58.0952 10.0024V10.065C58.2748 10.065 58.4127 10.0794 58.5939 10.1066L58.6035 10.0441ZM58.0952 10.0008C57.587 10.0008 57.0755 10.1179 56.6906 10.4145C56.3042 10.7127 56.0493 11.1922 56.0493 11.9073H56.1118C56.1118 11.2098 56.3603 10.7496 56.7291 10.4642C57.0995 10.1772 57.595 10.0634 58.0952 10.0634V10.0008ZM56.0493 11.9073V14.9025H56.1118V11.9073H56.0493ZM56.0797 14.8704H53.952V14.9329H56.0797V14.8704ZM53.9857 14.9025V7.90675H53.9231V14.9025H53.9857ZM53.9536 7.93722H56.0252V7.87468H53.9536V7.93722ZM55.9932 7.90515V9.09489H56.0557V7.90515H55.9932ZM56.0509 9.11252C56.5624 8.29638 57.5036 7.81215 58.5009 7.81215V7.74962C57.4843 7.74962 56.5207 8.24347 55.998 9.08046L56.0509 9.11413V9.11252ZM63.0368 12.7053L63.0065 12.7154L63.037 12.8052L63.0659 12.7154L63.0354 12.7058L63.0368 12.7053ZM64.6035 7.90515V7.87308H64.5811L64.5747 7.89553L64.6051 7.90515H64.6035ZM66.8291 7.90515L66.8579 7.91637L66.8756 7.87308H66.8291V7.90515ZM59.4692 17.5604L59.4373 17.5609V17.593H59.4694L59.4692 17.5604ZM59.4692 15.8528L59.4694 15.8212H59.4373V15.8533L59.4692 15.8528ZM59.1888 7.90515V7.87308H59.1423L59.1599 7.91637L59.1888 7.90515ZM61.3999 7.90515L61.4304 7.89553L61.4223 7.87468H61.3999V7.90675V7.90515ZM63.0675 12.7154L64.634 7.91637L64.5747 7.89713L63.0081 12.6962L63.0675 12.7154ZM64.6035 7.93722H66.8291V7.87468H64.6035V7.93722ZM66.8002 7.89392L63.526 16.2333L63.5854 16.2558L66.8595 7.91637L66.8002 7.89392ZM63.5244 16.2333C63.3288 16.7336 63.1091 17.0559 62.8061 17.2531C62.5031 17.4503 62.1118 17.5273 61.5683 17.5273V17.5898C62.1166 17.5898 62.5223 17.5128 62.8414 17.3044C63.1605 17.096 63.3881 16.7608 63.5854 16.2542L63.526 16.2317L63.5244 16.2333ZM61.5683 17.5289H59.4694V17.5914H61.5683V17.5289ZM59.4998 17.5609V15.8533H59.4373V17.5609H59.4998ZM59.4694 15.8854H61.0359V15.8228H59.4694V15.8854ZM61.0359 15.8854C61.2556 15.8854 61.4272 15.8501 61.5586 15.7747C61.6917 15.6994 61.7831 15.5839 61.8489 15.4332L61.7911 15.4076C61.7302 15.5503 61.6468 15.6513 61.5282 15.7202C61.4095 15.7876 61.2508 15.8228 61.0359 15.8228V15.8854ZM61.8489 15.4316C61.8921 15.3178 61.921 15.2023 61.921 15.0708H61.8585C61.8585 15.1911 61.8312 15.3001 61.7911 15.4092L61.8505 15.4316H61.8489ZM61.921 15.0708C61.921 14.8832 61.8777 14.7117 61.8072 14.5273L61.7478 14.5497C61.8168 14.7293 61.8569 14.8929 61.8569 15.0708H61.921ZM61.8072 14.5273L59.2176 7.89392L59.1583 7.91637L61.7462 14.5497L61.8056 14.5273H61.8072ZM59.1888 7.93722H61.3999V7.87468H59.1888V7.93722ZM61.3694 7.91637L63.0065 12.7154L63.0659 12.6946L61.4288 7.89553L61.3694 7.91637ZM70.0856 14.1184L70.1129 14.1008L70.0552 14.0126V14.1184H70.0872H70.0856ZM70.0856 17.5609V17.593H70.1177V17.5609H70.0856ZM67.9595 17.5609H67.9274V17.593H67.9595V17.5609ZM67.9595 7.90515V7.87308H67.9274V7.90515H67.9595ZM70.0856 7.90515H70.1177V7.87308H70.0856V7.90515ZM70.0856 8.70365H70.0536V8.79986L70.1113 8.72129L70.0856 8.70205V8.70365ZM72.1701 7.72717C74.0653 7.72717 75.3432 9.30333 75.3432 11.3333H75.4058C75.4058 9.27768 74.1086 7.66303 72.1701 7.66303V7.72717ZM75.3432 11.3333C75.3432 13.4177 73.8841 15.0805 72.0161 15.0805V15.143C73.9258 15.143 75.4058 13.4466 75.4058 11.3333H75.3432ZM72.0177 15.0805C71.1327 15.0805 70.4849 14.6668 70.1129 14.1008L70.06 14.136C70.4432 14.7181 71.1102 15.143 72.0177 15.143V15.0805ZM70.0552 14.1184V17.5609H70.1177V14.1184H70.0552ZM70.0856 17.5289H67.9579V17.5914H70.0856V17.5289ZM67.99 17.5609V7.90515H67.9274V17.5609H67.99ZM67.9595 7.93722H70.0872V7.87468H67.9595V7.93722ZM70.0552 7.90515V8.70205H70.1177V7.90515H70.0552ZM70.1113 8.72129C70.525 8.15528 71.2577 7.72717 72.1701 7.72717V7.66464C71.2369 7.66464 70.4849 8.10397 70.06 8.68441L70.1113 8.72129ZM71.6249 13.2269C72.1091 13.2269 72.5164 13.0377 72.8034 12.7138C73.0888 12.3899 73.2524 11.9345 73.2524 11.4038H73.1898C73.1898 11.9217 73.0311 12.3627 72.7569 12.6721C72.4827 12.9816 72.0931 13.1628 71.6265 13.1628V13.2253L71.6249 13.2269ZM73.2524 11.4038C73.2524 10.8731 73.0888 10.4177 72.8034 10.0938C72.518 9.76993 72.1091 9.58072 71.6249 9.58072V9.64326C72.0915 9.64326 72.4811 9.82444 72.7553 10.1339C73.0295 10.4434 73.1882 10.8843 73.1882 11.4022H73.2508L73.2524 11.4038ZM71.6249 9.58072C71.1262 9.58072 70.719 9.77634 70.4368 10.1034C70.1546 10.4305 69.999 10.8859 69.999 11.4022H70.0616C70.0616 10.8971 70.2139 10.4578 70.4849 10.1435C70.7559 9.83086 71.1455 9.64165 71.6265 9.64165V9.57912L71.6249 9.58072ZM69.999 11.4038C69.999 11.9137 70.1546 12.3691 70.4368 12.6978C70.719 13.0265 71.1262 13.2269 71.6249 13.2269V13.1644C71.1439 13.1644 70.7542 12.972 70.4833 12.6577C70.2123 12.3418 70.06 11.9025 70.06 11.4054H69.9974L69.999 11.4038ZM81.186 14.9581L81.1861 14.9907H81.2182V14.9586L81.186 14.9581ZM77.5205 9.52888L77.5528 9.52941V9.49735H77.5207L77.5205 9.52888ZM76.2474 9.52888L76.2155 9.52941V9.56148H76.2476L76.2474 9.52888ZM76.2476 7.96127V7.9292H76.2155V7.95967H76.2476V7.96127ZM77.9408 5.8207V5.78863H77.9087V5.8191H77.9408V5.8207ZM79.549 5.8207H79.5811V5.78863H79.549V5.8207ZM79.549 7.90515H79.5169V7.93722H79.549V7.90515ZM81.1861 7.90515H81.2182V7.87308H81.1861V7.90515ZM81.1861 9.52941V9.56148H81.2182V9.52941H81.1861ZM79.6051 9.52941V9.49735H79.5731V9.52941H79.6051ZM81.1861 13.2365H81.2182V13.2045H81.1861V13.2365ZM81.1861 14.9265H79.0455V14.9891H81.1861V14.9265ZM79.0455 14.9265C78.5244 14.9265 78.154 14.8079 77.9119 14.5658C77.6698 14.322 77.5528 13.9468 77.5528 13.4193H77.4902C77.4902 13.9549 77.6105 14.3493 77.8686 14.6107C78.1268 14.8704 78.518 14.9907 79.0471 14.9907V14.9281L79.0455 14.9265ZM77.5512 13.4193V9.52941H77.4886V13.4193H77.5512ZM77.5207 9.49735H76.2476V9.55988H77.5207V9.49735ZM76.278 9.52941V7.96287H76.2155V9.52941H76.278ZM76.2476 7.99334C76.9451 7.96448 77.3764 7.77046 77.6329 7.40328C77.8879 7.0377 77.9632 6.50857 77.9712 5.82231H77.9087C77.9023 6.50697 77.8237 7.02006 77.5816 7.368C77.3411 7.71274 76.9338 7.90355 76.246 7.93241L76.2492 7.99494L76.2476 7.99334ZM77.9408 5.85277H79.5506V5.79024H77.9408V5.85277ZM79.5169 5.8207V7.90515H79.5795V5.8207H79.5169ZM79.549 7.93722H81.1861V7.87468H79.549V7.93722ZM81.154 7.90515V9.52781H81.2166V7.90515H81.154ZM81.1861 9.49735H79.6051V9.55988H81.1861V9.49735ZM79.5731 9.52941V12.7619H79.6356V9.52941H79.5731ZM79.5731 12.7619C79.5731 12.9383 79.6003 13.0682 79.6837 13.1531C79.7671 13.2381 79.897 13.2686 80.0813 13.2686V13.2061C79.9018 13.2061 79.7943 13.174 79.7302 13.1082C79.6661 13.0425 79.6372 12.9351 79.6372 12.7619H79.5731ZM80.0813 13.2686H81.1861V13.2061H80.0813V13.2686ZM81.154 13.2365V14.957H81.2166V13.2365H81.154ZM86.006 15.0949C83.8959 15.0949 82.2604 13.5267 82.2604 11.4038H82.1979C82.1979 13.5636 83.8638 15.1574 86.0076 15.1574V15.0949H86.006ZM82.2604 11.4038C82.2604 9.26645 83.8959 7.71274 86.006 7.71274V7.6502C83.8622 7.6502 82.1963 9.23118 82.1963 11.4038H82.2604ZM86.006 7.71274C88.1033 7.71274 89.7532 9.26645 89.7532 11.4038H89.8157C89.8157 9.23118 88.1353 7.6502 86.006 7.6502V7.71274ZM89.7532 11.4038C89.7532 13.5267 88.1033 15.0949 86.006 15.0949V15.1574C88.1353 15.1574 89.8157 13.5636 89.8157 11.4038H89.7532ZM86.006 13.2269C86.9793 13.2269 87.6463 12.4252 87.6463 11.4038H87.5838C87.5838 12.3979 86.936 13.1628 86.006 13.1628V13.2269ZM87.6479 11.4038C87.6479 10.3552 86.9793 9.58072 86.0076 9.58072V9.64326C86.9392 9.64326 87.5854 10.3808 87.5854 11.4022H87.6479V11.4038ZM86.006 9.58072C85.5153 9.58072 85.1001 9.77313 84.8098 10.0986C84.5196 10.4241 84.3529 10.8795 84.3529 11.4038H84.4154C84.4154 10.8923 84.5773 10.453 84.8563 10.1403C85.1353 9.82925 85.533 9.64326 86.006 9.64326V9.58072ZM84.3529 11.4038C84.3529 12.4252 85.0215 13.2269 86.0076 13.2269V13.1644C85.0632 13.1644 84.417 12.3979 84.417 11.4054H84.3545L84.3529 11.4038ZM93.5195 14.9019L93.5196 14.9345H93.5517V14.9025L93.5195 14.9019ZM91.3084 14.9019L91.2764 14.9025V14.9345H91.3085L91.3084 14.9019ZM91.3084 5.24615L91.3085 5.21461H91.2764V5.24668L91.3084 5.24615ZM93.5196 11.2355V11.2034H93.4875V11.2355H93.5196ZM93.4778 7.1911L93.4779 7.15956H93.4459V7.19163L93.4778 7.1911ZM93.4779 9.27768H93.4459V9.30975H93.4779V9.27768ZM93.5196 14.8704H91.3085V14.9329H93.5196V14.8704ZM91.3406 14.9025V5.24668H91.278V14.9025H91.3406ZM91.3085 5.27875H96.3032V5.21621H91.3085V5.27875ZM96.3048 5.27875C97.278 5.27875 98.0781 5.56415 98.6345 6.06763C99.1909 6.5711 99.5052 7.29745 99.5052 8.18575H99.5677C99.5677 7.28302 99.247 6.53903 98.6762 6.02113C98.1054 5.50483 97.2893 5.21461 96.3048 5.21461V5.27875ZM99.5052 8.18575C99.5052 9.08687 99.1797 9.84208 98.6185 10.3696C98.0573 10.8987 97.2572 11.2034 96.3048 11.2034V11.2659C97.27 11.2659 98.0862 10.9565 98.6618 10.4145C99.2374 9.87255 99.5693 9.1013 99.5693 8.18414H99.5068L99.5052 8.18575ZM96.3048 11.205H93.5196V11.2675H96.3048V11.205ZM93.4875 11.2355V14.9009H93.5501V11.2355H93.4875ZM93.4459 7.19163V9.27607H93.5084V7.19163H93.4459ZM93.4779 9.30814H96.1364V9.24561H93.4779V9.30814ZM96.1364 9.30814C96.5132 9.30814 96.8082 9.20071 97.0103 9.01151C97.2123 8.8207 97.3165 8.54972 97.3165 8.22744H97.254C97.254 8.53529 97.1546 8.78863 96.9686 8.96501C96.781 9.14139 96.5036 9.24561 96.138 9.24561V9.30814H96.1364ZM97.3149 8.22744C97.3149 7.90515 97.2075 7.63738 97.0038 7.44978C96.8002 7.26218 96.5052 7.15956 96.1364 7.15956V7.22209C96.494 7.22209 96.7729 7.3215 96.9622 7.49467C97.1498 7.66784 97.2524 7.91798 97.2524 8.22583H97.3149V8.22744ZM96.1364 7.16116H93.4779V7.2237H96.1364V7.16116ZM105.441 7.77955L105.473 7.78008V7.74801H105.441L105.441 7.77955ZM105.441 10.074L105.436 10.105L105.473 10.1099V10.073H105.441L105.441 10.074ZM102.922 14.9019L102.922 14.9345H102.954V14.9025L102.922 14.9019ZM100.794 14.9019L100.762 14.9025V14.9345H100.794L100.794 14.9019ZM100.794 7.90515V7.87308H100.762V7.90515H100.794ZM102.866 7.90515H102.898V7.87308H102.866V7.90515ZM102.866 9.09489H102.834V9.20392L102.892 9.11092L102.864 9.09489H102.866ZM105.343 7.81215H105.441V7.74962H105.343V7.81215ZM105.409 7.78008V10.0746H105.472V7.78008H105.409ZM105.446 10.0441C105.263 10.0153 105.122 10.0024 104.938 10.0024V10.065C105.117 10.065 105.255 10.0794 105.436 10.1066L105.446 10.0441ZM104.938 10.0008C104.429 10.0008 103.918 10.1179 103.533 10.4145C103.147 10.7127 102.892 11.1922 102.892 11.9073H102.954C102.954 11.2098 103.203 10.7496 103.571 10.4642C103.942 10.1772 104.437 10.0634 104.938 10.0634V10.0008ZM102.89 11.9073V14.9025H102.953V11.9073H102.89ZM102.922 14.8704H100.794V14.9329H102.922V14.8704ZM100.826 14.9025V7.90675H100.764V14.9025H100.826ZM100.794 7.93722H102.866V7.87468H100.794V7.93722ZM102.834 7.90515V9.09489H102.896V7.90515H102.834ZM102.893 9.11252C103.405 8.29638 104.346 7.81215 105.343 7.81215V7.74962C104.327 7.74962 103.365 8.24347 102.84 9.08046L102.893 9.11413V9.11252ZM109.98 15.0949C107.87 15.0949 106.235 13.5267 106.235 11.4038H106.172C106.172 13.5636 107.838 15.1574 109.982 15.1574V15.0949H109.98ZM106.235 11.4038C106.235 9.26645 107.87 7.71274 109.98 7.71274V7.6502C107.837 7.6502 106.171 9.23118 106.171 11.4038H106.235ZM109.98 7.71274C112.076 7.71274 113.728 9.26645 113.728 11.4038H113.79C113.79 9.23118 112.11 7.6502 109.98 7.6502V7.71274ZM113.728 11.4038C113.728 13.5267 112.078 15.0949 109.98 15.0949V15.1574C112.11 15.1574 113.79 13.5636 113.79 11.4038H113.728ZM109.98 13.2269C110.954 13.2269 111.621 12.4252 111.621 11.4038H111.558C111.558 12.3979 110.91 13.1628 109.98 13.1628V13.2269ZM111.622 11.4038C111.622 10.3552 110.954 9.58072 109.982 9.58072V9.64326C110.912 9.64326 111.56 10.3808 111.56 11.4022H111.622V11.4038ZM109.98 9.58072C109.49 9.58072 109.074 9.77313 108.783 10.0986C108.492 10.4241 108.326 10.8795 108.326 11.4038H108.388C108.388 10.8923 108.55 10.453 108.829 10.1403C109.108 9.82925 109.506 9.64326 109.979 9.64326V9.58072H109.98ZM108.326 11.4038C108.326 12.4252 108.994 13.2269 109.98 13.2269V13.1644C109.036 13.1644 108.388 12.3979 108.388 11.4054H108.326V11.4038ZM122.331 10.8859V10.918H122.367L122.362 10.8827L122.33 10.8859H122.331ZM120.233 10.8859L120.202 10.8939L120.209 10.918H120.233V10.8859ZM120.233 11.9217V11.8896H120.207L120.201 11.9137L120.231 11.9201L120.233 11.9217ZM122.346 11.9217L122.378 11.9249L122.381 11.8896H122.346V11.9217ZM118.652 15.0949C116.542 15.0949 114.906 13.5267 114.906 11.4182H114.844C114.844 13.5636 116.509 15.1574 118.653 15.1574V15.0949H118.652ZM114.904 11.4182C114.904 9.26806 116.54 7.71434 118.65 7.71434V7.65181C116.506 7.65181 114.84 9.23278 114.84 11.4198H114.903L114.904 11.4182ZM118.652 7.71274C120.581 7.71274 122.093 9.07244 122.301 10.8891L122.364 10.8827C122.152 9.03396 120.613 7.6502 118.652 7.6502V7.71274ZM122.331 10.8554H120.233V10.918H122.331V10.8554ZM120.263 10.8795C120.079 10.1115 119.508 9.58233 118.679 9.58233V9.64486C119.474 9.64486 120.023 10.1499 120.202 10.8939L120.263 10.8795ZM118.679 9.58072C117.707 9.58072 117.01 10.368 117.01 11.4166H117.072C117.072 10.3953 117.747 9.64326 118.677 9.64326V9.58072H118.679ZM117.01 11.4182C117.01 12.4268 117.707 13.2269 118.679 13.2269V13.1644C117.747 13.1644 117.074 12.3979 117.074 11.4182H117.01ZM118.679 13.2269C119.493 13.2269 120.091 12.6689 120.263 11.9297L120.202 11.9153C120.037 12.6304 119.461 13.1644 118.679 13.1644V13.2269ZM120.233 11.9538H122.346V11.8913H120.233V11.9538ZM122.314 11.9185C122.12 13.7352 120.595 15.0949 118.652 15.0949V15.1574C120.625 15.1574 122.179 13.7753 122.378 11.9249L122.315 11.9185H122.314ZM130.74 11.8506L130.74 11.8832H130.769L130.772 11.8544L130.74 11.8506ZM125.463 11.8512V11.8191H125.426L125.431 11.8544L125.463 11.8496V11.8512ZM128.556 12.4957V12.4637H128.535L128.527 12.4829L128.556 12.4957ZM130.711 12.4957L130.741 12.5022L130.749 12.4637H130.709V12.4957H130.711ZM125.492 10.5781L125.461 10.5716L125.453 10.6101H125.492V10.5781ZM128.683 10.5781V10.6101H128.721L128.715 10.5732L128.682 10.5791L128.683 10.5781ZM130.74 11.8207H125.465V11.8832H130.74V11.8207ZM125.432 11.856C125.561 12.7667 126.245 13.3664 127.114 13.3664V13.3039C126.277 13.3039 125.618 12.7282 125.495 11.848L125.432 11.856ZM127.114 13.3664C127.531 13.3664 127.838 13.2894 128.072 13.1419C128.306 12.9944 128.463 12.7779 128.585 12.5086L128.527 12.4829C128.41 12.7459 128.259 12.9495 128.038 13.089C127.817 13.2285 127.523 13.3039 127.114 13.3039V13.3664ZM128.556 12.5262H130.711V12.4637H128.556V12.5262ZM130.68 12.4877C130.349 13.9549 128.907 15.0933 127.116 15.0933V15.1558C128.934 15.1558 130.403 13.9997 130.743 12.5006L130.682 12.4861L130.68 12.4877ZM127.114 15.0949C125.989 15.0949 125.067 14.7101 124.426 14.0559C123.784 13.4033 123.423 12.4813 123.423 11.4038H123.361C123.361 12.4957 123.728 13.4337 124.381 14.1008C125.035 14.7662 125.973 15.1574 127.114 15.1574V15.0949ZM123.423 11.4038C123.423 9.26645 124.948 7.71274 127.142 7.71274V7.6502C124.913 7.6502 123.359 9.23118 123.359 11.4038H123.423ZM127.143 7.71274C128.261 7.71274 129.156 8.12161 129.77 8.79986C130.384 9.4765 130.722 10.4241 130.722 11.5016H130.785C130.785 10.4113 130.443 9.44764 129.816 8.75657C129.189 8.06549 128.279 7.6502 127.143 7.6502V7.71274ZM130.721 11.5016C130.721 11.6139 130.721 11.6956 130.706 11.848L130.769 11.8544C130.783 11.6988 130.783 11.6139 130.783 11.5016H130.721ZM127.129 9.30173C126.263 9.30173 125.618 9.78596 125.461 10.5732L125.524 10.5861C125.675 9.83246 126.29 9.36586 127.131 9.36586V9.30333L127.129 9.30173ZM125.492 10.6101H128.683V10.5476H125.492V10.6101ZM128.713 10.5732C128.57 9.78756 127.926 9.30173 127.129 9.30173V9.36426C127.899 9.36426 128.514 9.83086 128.651 10.5845L128.713 10.5732ZM131.843 12.5786L131.843 12.5471H131.808L131.811 12.5823L131.843 12.5786ZM133.817 12.5791L133.847 12.5695L133.841 12.5471H133.818V12.5791H133.817ZM138.266 10.0329V10.065H138.305L138.298 10.0281L138.268 10.0345L138.266 10.0329ZM136.307 10.0329L136.276 10.0425L136.284 10.065H136.307V10.0329ZM135.173 15.0805C134.198 15.0805 133.416 14.8271 132.856 14.3878C132.297 13.9484 131.958 13.3231 131.875 12.5759L131.813 12.5823C131.897 13.3456 132.244 13.9869 132.818 14.4375C133.392 14.8864 134.189 15.1446 135.175 15.1446V15.0821L135.173 15.0805ZM131.843 12.6112H133.815V12.5487H131.843V12.6112ZM133.786 12.5887C134.003 13.2654 134.663 13.5059 135.215 13.5059V13.4434C134.676 13.4434 134.049 13.2093 133.846 12.5695L133.785 12.5887H133.786ZM135.215 13.5059C135.483 13.5059 135.747 13.4674 135.946 13.368C136.147 13.267 136.281 13.105 136.281 12.8581H136.219C136.219 13.0746 136.102 13.2189 135.917 13.3103C135.731 13.4033 135.478 13.4418 135.213 13.4418V13.5043L135.215 13.5059ZM136.283 12.8597C136.283 12.7459 136.252 12.6513 136.193 12.5727C136.135 12.4957 136.052 12.4364 135.949 12.3899C135.746 12.2969 135.457 12.2472 135.122 12.1991L135.112 12.2616C135.449 12.3113 135.728 12.3595 135.922 12.4476C136.018 12.4925 136.092 12.5454 136.142 12.6112C136.191 12.6769 136.219 12.7571 136.219 12.8597H136.283ZM135.122 12.1975L134.408 12.0997L134.4 12.1622L135.114 12.26L135.122 12.1975ZM134.408 12.0997C133.669 11.9955 133.082 11.779 132.678 11.4327C132.276 11.0863 132.056 10.6053 132.056 9.96234H131.994C131.994 10.6213 132.221 11.12 132.638 11.4792C133.054 11.8383 133.655 12.0564 134.4 12.1622L134.41 12.0997H134.408ZM132.056 9.96234C132.056 9.29531 132.366 8.73732 132.895 8.34609C133.426 7.95325 134.178 7.72717 135.061 7.72717V7.66464C134.168 7.66464 133.401 7.89392 132.858 8.29478C132.314 8.69724 131.994 9.27287 131.994 9.96234H132.056ZM135.061 7.72717C135.98 7.72717 136.706 7.95967 137.237 8.36373C137.768 8.76779 138.103 9.34502 138.234 10.0377L138.297 10.0265C138.162 9.31937 137.819 8.72931 137.275 8.31402C136.732 7.90034 135.989 7.66464 135.061 7.66464V7.72717ZM138.266 10.0008H136.307V10.0634H138.266V10.0008ZM136.337 10.0233C136.164 9.48772 135.629 9.24561 135.075 9.24561V9.30814C135.614 9.30814 136.114 9.54224 136.276 10.0425L136.337 10.0233ZM135.075 9.24561C134.792 9.24561 134.545 9.29852 134.367 9.39954C134.189 9.50216 134.078 9.65448 134.078 9.8501H134.141C134.141 9.68174 134.234 9.54865 134.397 9.45405C134.562 9.35945 134.798 9.30814 135.074 9.30814V9.24561H135.075ZM134.078 9.8501C134.078 9.9431 134.099 10.0217 134.144 10.0874C134.189 10.1531 134.255 10.2045 134.341 10.2461C134.513 10.3295 134.769 10.3792 135.111 10.4273L135.12 10.3648C134.777 10.3151 134.53 10.267 134.368 10.19C134.288 10.1515 134.232 10.1066 134.195 10.0521C134.158 9.99922 134.139 9.93348 134.139 9.8501H134.077H134.078ZM135.114 10.4273L135.827 10.5251L135.835 10.4626L135.122 10.3648L135.114 10.4273ZM135.827 10.5251C136.525 10.6229 137.144 10.8202 137.59 11.1713C138.034 11.5209 138.305 12.0211 138.305 12.733H138.367C138.367 12.0035 138.087 11.4824 137.628 11.1216C137.171 10.7608 136.538 10.5604 135.835 10.4626L135.827 10.5251ZM138.305 12.733C138.305 13.4722 137.998 14.0575 137.455 14.4583C136.911 14.8608 136.127 15.0805 135.173 15.0805V15.143C136.135 15.143 136.934 14.9217 137.492 14.5096C138.051 14.096 138.367 13.4915 138.367 12.733H138.305ZM139.448 12.5786L139.448 12.5471H139.413L139.416 12.5823L139.448 12.5786ZM141.42 12.5791L141.451 12.5695L141.443 12.5471H141.42V12.5791ZM145.87 10.0329V10.065H145.908L145.9 10.0281L145.87 10.0345V10.0329ZM143.912 10.0329L143.881 10.0425L143.888 10.065H143.91V10.0329H143.912ZM142.778 15.0805C141.803 15.0805 141.021 14.8271 140.461 14.3878C139.902 13.9484 139.563 13.3231 139.48 12.5759L139.418 12.5823C139.503 13.3456 139.849 13.9869 140.423 14.4375C140.995 14.8864 141.794 15.1446 142.78 15.1446V15.0821L142.778 15.0805ZM139.448 12.6112H141.422V12.5487H139.448V12.6112ZM141.39 12.5887C141.606 13.2654 142.267 13.5059 142.818 13.5059V13.4434C142.28 13.4434 141.653 13.2093 141.449 12.5695L141.388 12.5887H141.39ZM142.82 13.5059C143.088 13.5059 143.352 13.4674 143.551 13.368C143.752 13.267 143.886 13.105 143.886 12.8581H143.824C143.824 13.0746 143.707 13.2189 143.522 13.3103C143.336 13.4033 143.083 13.4418 142.818 13.4418V13.5043L142.82 13.5059ZM143.886 12.8597C143.886 12.7459 143.856 12.6513 143.798 12.5727C143.74 12.4957 143.657 12.4364 143.554 12.3899C143.351 12.2969 143.062 12.2472 142.727 12.1991L142.717 12.2616C143.054 12.3113 143.333 12.3595 143.527 12.4476C143.623 12.4925 143.697 12.5454 143.747 12.6112C143.796 12.6769 143.824 12.7571 143.824 12.8597H143.886ZM142.725 12.1975L142.012 12.0997L142.004 12.1622L142.717 12.26L142.725 12.1975ZM142.012 12.0997C141.273 11.9955 140.686 11.779 140.282 11.4327C139.879 11.0863 139.66 10.6053 139.66 9.96234H139.597C139.597 10.6213 139.825 11.12 140.242 11.4792C140.657 11.8383 141.258 12.0564 142.004 12.1622L142.013 12.0997H142.012ZM139.661 9.96234C139.661 9.29531 139.971 8.73732 140.5 8.34609C141.031 7.95325 141.783 7.72717 142.666 7.72717V7.66464C141.773 7.66464 141.007 7.89392 140.463 8.29478C139.919 8.69724 139.599 9.27287 139.599 9.96234H139.661ZM142.666 7.72717C143.585 7.72717 144.311 7.95967 144.842 8.36373C145.371 8.76779 145.708 9.34502 145.839 10.0377L145.902 10.0265C145.767 9.31937 145.424 8.72931 144.88 8.31402C144.337 7.90034 143.594 7.66464 142.666 7.66464V7.72717ZM145.87 10.0008H143.91V10.0634H145.87V10.0008ZM143.941 10.0233C143.768 9.48772 143.232 9.24561 142.679 9.24561V9.30814C143.218 9.30814 143.718 9.54224 143.88 10.0425L143.939 10.0233H143.941ZM142.679 9.24561C142.395 9.24561 142.148 9.29852 141.97 9.39954C141.792 9.50216 141.682 9.65448 141.682 9.8501H141.744C141.744 9.68174 141.837 9.54865 142.001 9.45405C142.166 9.35945 142.401 9.30814 142.677 9.30814V9.24561H142.679ZM141.683 9.8501C141.683 9.9431 141.704 10.0217 141.749 10.0874C141.794 10.1531 141.861 10.2045 141.946 10.2461C142.118 10.3295 142.374 10.3792 142.716 10.4273L142.724 10.3648C142.381 10.3151 142.134 10.267 141.972 10.19C141.892 10.1515 141.835 10.1066 141.799 10.0521C141.762 9.99922 141.742 9.93348 141.742 9.8501H141.68H141.683ZM142.717 10.4273L143.431 10.5251L143.439 10.4626L142.725 10.3648L142.717 10.4273ZM143.431 10.5251C144.128 10.6229 144.747 10.8202 145.193 11.1713C145.637 11.5209 145.908 12.0211 145.908 12.733H145.971C145.971 12.0035 145.69 11.4824 145.232 11.1216C144.775 10.7608 144.141 10.5604 143.439 10.4626L143.431 10.5251ZM145.908 12.733C145.908 13.4722 145.602 14.0575 145.058 14.4583C144.515 14.8608 143.731 15.0805 142.777 15.0805V15.143C143.739 15.143 144.537 14.9217 145.095 14.5096C145.655 14.096 145.971 13.4915 145.971 12.733H145.908ZM149.641 7.12215L149.641 7.15475H149.673V7.12268L149.641 7.12215ZM147.513 7.12215L147.481 7.12268V7.15475H147.513L147.513 7.12215ZM147.513 5.24668V5.21461H147.481V5.24668H147.513ZM149.641 5.24668H149.673V5.21461H149.641V5.24668ZM149.641 14.9019L149.641 14.9345H149.673V14.9025L149.641 14.9019ZM147.513 14.9019L147.481 14.9025V14.9345H147.513L147.513 14.9019ZM147.513 7.90515V7.87308H147.481V7.90515H147.513ZM149.641 7.90515H149.673V7.87308H149.641V7.90515ZM149.641 7.09061H147.513V7.15314H149.641V7.09061ZM147.545 7.12268V5.24828H147.483V7.12268H147.545ZM147.513 5.27875H149.641V5.21621H147.513V5.27875ZM149.609 5.24668V7.12108H149.671V5.24668H149.609ZM149.641 14.8704H147.513V14.9329H149.641V14.8704ZM147.545 14.9025V7.90675H147.483V14.9025H147.545ZM147.513 7.93722H149.641V7.87468H147.513V7.93722ZM149.609 7.90515V14.9009H149.671V7.90515H149.609ZM158.197 14.9025V14.9345H158.229V14.9025H158.197ZM156.069 14.9025H156.037V14.9345H156.069V14.9025ZM153.733 14.9025V14.9345H153.765V14.9025H153.733ZM151.605 14.9025H151.573V14.9345H151.605V14.9025ZM151.605 7.90515V7.87308H151.573V7.90515H151.605ZM153.691 7.90515H153.723V7.87308H153.691V7.90515ZM153.691 8.61867H153.659V8.70205L153.714 8.64112L153.69 8.62027L153.691 8.61867ZM155.803 7.72717C156.516 7.72717 157.106 7.96608 157.517 8.3958C157.929 8.82551 158.165 9.45085 158.165 10.2285H158.227C158.227 9.43802 157.987 8.79665 157.562 8.3525C157.137 7.90836 156.531 7.66464 155.801 7.66464V7.72717H155.803ZM158.165 10.2285V14.9025H158.227V10.2285H158.165ZM158.197 14.8704H156.069V14.9329H158.197V14.8704ZM156.101 14.9025V10.8025H156.039V14.9025H156.101ZM156.101 10.8025C156.101 10.4834 156.031 10.182 155.849 9.95913C155.667 9.73465 155.378 9.59515 154.95 9.59515V9.65769C155.362 9.65769 155.631 9.79077 155.8 9.99761C155.968 10.2045 156.037 10.4915 156.037 10.8009H156.1L156.101 10.8025ZM154.95 9.59515C154.543 9.59515 154.23 9.73465 154.018 9.96073C153.807 10.1868 153.701 10.4947 153.701 10.8314H153.763C153.763 10.5091 153.866 10.2157 154.065 10.004C154.262 9.79237 154.559 9.65929 154.95 9.65929V9.59515ZM153.701 10.8298V14.9009H153.763V10.8298H153.701ZM153.733 14.8704H151.605V14.9329H153.733V14.8704ZM151.637 14.9025V7.90675H151.575V14.9025H151.637ZM151.605 7.93722H153.69V7.87468H151.605V7.93722ZM153.659 7.90515V8.61867H153.722V7.90515H153.659ZM153.714 8.64112C154.183 8.1152 154.945 7.72877 155.803 7.72877V7.66624C154.926 7.66624 154.148 8.06228 153.667 8.60103L153.714 8.64272V8.64112ZM165.093 8.61814L165.069 8.63791L165.125 8.70846V8.61867L165.093 8.61814ZM165.093 7.90462L165.093 7.87308H165.061V7.90515L165.093 7.90462ZM167.067 7.90515H167.099V7.87308H167.067V7.90515ZM159.959 15.3226V15.2905H159.922L159.928 15.3274L159.961 15.3226H159.959ZM162.015 15.3226L162.045 15.3113L162.037 15.2905H162.015V15.3226ZM165.122 13.7961H165.154V13.7063L165.098 13.7753L165.122 13.7945V13.7961ZM165.125 8.61867V7.90515H165.063V8.61867H165.125ZM165.093 7.93722H167.065V7.87468H165.093V7.93722ZM167.035 7.90515V14.3974H167.097V7.90515H167.035ZM167.035 14.399C167.035 15.4621 166.668 16.2958 166.033 16.8651C165.398 17.4343 164.493 17.7405 163.414 17.7405V17.8031C164.505 17.8031 165.425 17.4936 166.074 16.9116C166.724 16.3295 167.097 15.4765 167.097 14.399H167.035ZM163.414 17.7389C162.391 17.7389 161.594 17.4776 161.024 17.0462C160.453 16.6133 160.108 16.0088 159.989 15.3178L159.927 15.329C160.047 16.0361 160.401 16.655 160.985 17.0976C161.569 17.5401 162.382 17.8031 163.414 17.8031V17.7405V17.7389ZM159.959 15.353H162.016V15.2905H159.959V15.353ZM161.986 15.3322C162.132 15.7411 162.637 16.0954 163.443 16.0954V16.0329C162.654 16.0329 162.18 15.6865 162.047 15.313L161.987 15.3338L161.986 15.3322ZM163.442 16.0954C163.972 16.0954 164.402 15.9367 164.697 15.64C164.992 15.345 165.152 14.9153 165.152 14.3846H165.09C165.09 14.9025 164.934 15.3146 164.654 15.5952C164.373 15.8758 163.961 16.0313 163.443 16.0313V16.0938L163.442 16.0954ZM165.152 14.3846V13.7961H165.09V14.3846H165.152ZM165.096 13.7769C164.641 14.3429 163.839 14.7582 162.882 14.7582V14.8207C163.857 14.8207 164.678 14.3974 165.146 13.8154L165.096 13.7753V13.7769ZM162.882 14.7582C161.933 14.7582 161.147 14.3878 160.599 13.7737C160.05 13.1596 159.738 12.3001 159.738 11.3204H159.675C159.675 12.313 159.993 13.1884 160.552 13.817C161.113 14.4455 161.915 14.8223 162.884 14.8223V14.7598L162.882 14.7582ZM159.738 11.3204C159.738 9.34823 161.168 7.72717 163.036 7.72717V7.66464C161.126 7.66464 159.674 9.31937 159.674 11.3204H159.738ZM163.036 7.72717C163.923 7.72717 164.641 8.10077 165.067 8.63952L165.117 8.60103C164.676 8.04785 163.94 7.66624 163.036 7.66624V7.72877V7.72717ZM163.498 13.0441C164.469 13.0441 165.138 12.2713 165.138 11.2771H165.075C165.075 12.2424 164.429 12.98 163.498 12.98V13.0441ZM165.14 11.2787C165.14 10.2702 164.471 9.51178 163.499 9.51178V9.57431C164.431 9.57431 165.077 10.2991 165.077 11.2771H165.14V11.2787ZM163.498 9.51178C163.007 9.51178 162.589 9.69777 162.294 10.012C161.998 10.3263 161.829 10.7689 161.829 11.2787H161.891C161.891 10.7817 162.056 10.3568 162.338 10.0553C162.621 9.75389 163.021 9.57591 163.496 9.57591V9.51338L163.498 9.51178ZM161.83 11.2787C161.83 12.2873 162.515 13.0457 163.499 13.0457V12.9832C162.553 12.9832 161.894 12.2584 161.894 11.2803H161.832L161.83 11.2787Z" fill="black"/>
<path d="M46.815 25.0938C48.6445 25.0938 49.8856 26.5449 49.8856 28.4914C49.8856 30.438 48.566 32.0206 46.7365 32.0206C45.7824 32.0206 45.0112 31.485 44.5927 30.7923V31.8249H43.2603V22.8073H44.5927V26.3364C45.0112 25.6309 45.7953 25.0954 46.815 25.0954V25.0938ZM46.5264 30.8308C47.7033 30.8308 48.5002 29.864 48.5002 28.5572C48.5002 27.2504 47.6905 26.2835 46.5264 26.2835C45.3623 26.2835 44.5654 27.1718 44.5654 28.5572C44.5654 29.9425 45.4024 30.8308 46.5264 30.8308ZM53.4837 30.3867L55.3789 25.2894H56.7771L53.5366 33.3001C53.2223 34.0842 52.8182 34.307 51.9813 34.307H50.4644V33.2488H51.6141C52.1624 33.2488 52.3597 33.0788 52.5553 32.5962C52.6723 32.3348 52.7381 32.1264 52.7381 31.9035C52.7381 31.7207 52.6852 31.5251 52.5809 31.2766L50.2031 25.291H51.6141L53.4837 30.3883V30.3867ZM64.4607 32.0206C61.8728 32.0206 59.8733 30.0596 59.8733 27.329C59.8733 24.5983 61.8728 22.6117 64.4607 22.6117C66.6959 22.6117 68.4211 23.997 68.8396 26.1007H67.3757C67.023 24.7939 65.9246 23.8784 64.4607 23.8784C62.6184 23.8784 61.3372 25.3423 61.3372 27.3161C61.3372 29.2899 62.6184 30.7539 64.4607 30.7539C65.9118 30.7539 66.97 29.9041 67.3757 28.663H68.8268C68.3827 30.6625 66.7231 32.0222 64.4623 32.0222L64.4607 32.0206ZM72.8867 32.0206C70.9529 32.0206 69.5147 30.5695 69.5147 28.5572C69.5147 26.5449 70.9529 25.0938 72.8867 25.0938C74.8204 25.0938 76.2715 26.5449 76.2715 28.5572C76.2715 30.5695 74.8332 32.0206 72.8867 32.0206ZM72.8867 30.818C74.0764 30.818 74.899 29.8768 74.899 28.5572C74.899 27.2376 74.0764 26.2964 72.8867 26.2964C71.6969 26.2964 70.8872 27.2376 70.8872 28.5572C70.8872 29.8768 71.6969 30.818 72.8867 30.818ZM78.8434 24.244H77.4837V22.8057H78.8434V24.244ZM78.8289 31.8233H77.4965V25.2894H78.8289V31.8233ZM83.939 25.0938C85.2859 25.0938 86.187 26.0093 86.187 27.4861V31.8249H84.8402V27.8918C84.8402 27.0035 84.4345 26.3108 83.4292 26.3108C82.4879 26.3108 81.8738 27.0564 81.8738 27.8789V31.8249H80.5414V25.291H81.8738V26.2066C82.2923 25.5668 83.0363 25.0954 83.939 25.0954V25.0938ZM90.1747 32.0206C88.5024 32.0206 87.4169 31.1451 87.2469 29.7726H88.4879C88.6836 30.6096 89.4019 30.9495 90.2004 30.9495C90.946 30.9495 91.5601 30.5967 91.5601 30.0211C91.5601 29.4455 91.0246 29.2499 90.279 29.1328L89.535 29.0029C88.2939 28.7945 87.4569 28.2718 87.4569 27.0949C87.4569 25.9179 88.528 25.0954 90.032 25.0954C91.536 25.0954 92.5414 25.841 92.7899 27.1734H91.5617C91.3533 26.4551 90.752 26.1408 90.0465 26.1408C89.2752 26.1408 88.7782 26.5064 88.7782 27.0035C88.7782 27.5262 89.171 27.6961 89.9551 27.826L90.6862 27.9431C91.9273 28.1515 92.8685 28.6486 92.8685 29.9169C92.8685 31.1852 91.7317 32.0206 90.1763 32.0206H90.1747ZM95.5606 31.8233H94.1625V22.8057H98.5013C100.148 22.8057 101.338 23.8127 101.338 25.4193C101.338 27.0259 100.135 28.0858 98.5013 28.0858H95.5606V31.8233ZM95.5478 24.0355V26.8447H98.3971C99.3255 26.8447 99.9251 26.3348 99.9251 25.4722C99.9251 24.6096 99.3239 24.0339 98.3971 24.0339H95.5478V24.0355ZM103.934 32.0206C102.665 32.0206 101.66 31.2766 101.66 30.0211C101.66 28.3872 103.398 27.9302 105.359 27.8645L106.156 27.8388V27.5647C106.156 26.7277 105.646 26.1921 104.719 26.1921C103.844 26.1921 103.294 26.6491 103.164 27.3819H101.87C102.027 26.0751 103.047 25.0954 104.719 25.0954C106.392 25.0954 107.399 25.9837 107.399 27.5518V30.6753C107.399 31.081 107.437 31.6422 107.464 31.7993V31.8249H106.158C106.145 31.6165 106.145 31.1451 106.145 30.9367C105.713 31.5379 104.982 32.0206 103.937 32.0206H103.934ZM104.274 30.988C105.451 30.988 106.156 30.1125 106.156 29.237V28.7015C106.012 28.7015 105.829 28.7015 105.568 28.7143C104.182 28.7929 103.02 29.0286 103.02 29.9425C103.02 30.6096 103.542 30.988 104.275 30.988H104.274ZM110.387 24.244H109.028V22.8057H110.387V24.244ZM110.373 31.8233H109.041V25.2894H110.373V31.8233ZM116.907 26.322V22.8057H118.227V31.8233H116.907V30.7394C116.488 31.4578 115.704 32.0206 114.659 32.0206C112.829 32.0206 111.601 30.5695 111.601 28.6229C111.601 26.6764 112.921 25.0938 114.75 25.0938C115.717 25.0938 116.488 25.6165 116.907 26.322ZM114.96 30.818C116.084 30.818 116.921 29.9425 116.921 28.5572C116.921 27.1718 116.084 26.2964 114.96 26.2964C113.771 26.2964 112.974 27.2504 112.974 28.5572C112.974 29.864 113.784 30.818 114.96 30.818Z" fill="black"/>
<path d="M18.0706 36C8.10689 36 0 27.9252 0 18C0 8.07483 8.10689 0 18.0706 0C28.0342 0 36.1411 8.07483 36.1411 18C36.1411 27.9252 28.0342 36 18.0706 36ZM18.0706 2.78835C9.64457 2.78835 2.78835 9.61251 2.78835 18C2.78835 26.3875 9.64297 33.2117 18.0706 33.2117C26.4981 33.2117 33.3528 26.3875 33.3528 18C33.3528 9.61251 26.4965 2.78835 18.0706 2.78835Z" fill="black"/>
<path d="M14.2639 14.1166C14.2639 16.0407 15.8352 17.6073 17.769 17.6073C18.2628 17.6073 18.6605 17.5656 19.2329 17.4501V21.0819C15.9731 21.611 11.8251 19.8761 10.8743 15.6543L10.8502 15.5421L10.8133 15.6511C10.5744 16.3806 10.4526 17.1407 10.4526 17.9135C10.4526 21.9301 13.7348 25.1979 17.769 25.1979C18.2949 25.1979 18.8032 25.1658 19.2329 25.1337V28.6212C18.6011 28.7414 17.769 28.7414 17.769 28.7414C11.4082 28.7414 8.47554 23.7756 7.74758 22.0744C7.17837 20.7452 6.89136 19.3454 6.89136 17.9135C6.89136 12.122 11.5092 7.28765 17.4066 7.09203C17.5381 7.08722 18.4472 7.03752 19.2329 7.20427V10.7815C18.7599 10.6532 18.3366 10.6276 17.769 10.6276C15.8352 10.6276 14.2639 12.1925 14.2639 14.1182V14.1166Z" fill="black"/>
</g>
<defs>
<clipPath id="clip0_1372_34962">
<rect width="167.4" height="36" fill="white"/>
</clipPath>
</defs>
</svg>
